<svg width="63" height="64" xmlns="http://www.w3.org/2000/svg">

 <g>
  <title>background</title>
  <rect fill="none" id="canvas_background" height="66" width="65" y="-1" x="-1"/>
 </g>
 <g>
  <title>Layer 1</title>
  <g id="svg_1">
   <path id="svg_36" d="m44.734,61l-27.468,0c-2.352,0 -4.266,-1.913 -4.266,-4.266l0,-4.734c0,-0.553 0.448,-1 1,-1l34,0c0.552,0 1,0.447 1,1l0,4.734c0,2.353 -1.914,4.266 -4.266,4.266zm-29.734,-8l0,3.734c0,1.249 1.016,2.266 2.266,2.266l27.469,0c1.249,0 2.265,-1.017 2.265,-2.266l0,-3.734l-32,0z"/>
   <path id="svg_37" d="m34,57l-6,0c-0.552,0 -1,-0.447 -1,-1s0.448,-1 1,-1l6,0c0.552,0 1,0.447 1,1s-0.448,1 -1,1z"/>
   <path id="svg_38" d="m43,57l-4,0c-0.552,0 -1,-0.447 -1,-1s0.448,-1 1,-1l4,0c0.552,0 1,0.447 1,1s-0.448,1 -1,1z"/>
   <path id="svg_39" d="m23,57l-4,0c-0.552,0 -1,-0.447 -1,-1s0.448,-1 1,-1l4,0c0.552,0 1,0.447 1,1s-0.448,1 -1,1z"/>
   <path id="svg_40" d="m48,11l-34,0c-0.552,0 -1,-0.447 -1,-1l0,-4.734c0,-2.353 1.914,-4.266 4.266,-4.266l27.469,0c2.351,0 4.265,1.913 4.265,4.266l0,4.734c0,0.553 -0.448,1 -1,1zm-33,-2l32,0l0,-3.734c0,-1.249 -1.016,-2.266 -2.266,-2.266l-27.468,0c-1.25,0 -2.266,1.017 -2.266,2.266l0,3.734z"/>
   <path id="svg_41" d="m36,7l-10,0c-0.552,0 -1,-0.447 -1,-1s0.448,-1 1,-1l10,0c0.552,0 1,0.447 1,1s-0.448,1 -1,1z"/>
   <path id="svg_42" d="m48,53l-34,0c-0.552,0 -1,-0.447 -1,-1l0,-42c0,-0.553 0.448,-1 1,-1l34,0c0.552,0 1,0.447 1,1l0,42c0,0.553 -0.448,1 -1,1zm-33,-2l32,0l0,-40l-32,0l0,40z"/>
   <path id="svg_43" d="m52.994,39.022c-0.093,0 -0.187,-0.013 -0.281,-0.04c-0.53,-0.155 -0.834,-0.71 -0.68,-1.24c0.637,-2.181 0.96,-4.448 0.96,-6.742c0,-2.285 -0.321,-4.547 -0.953,-6.721c-0.154,-0.53 0.151,-1.085 0.681,-1.239c0.53,-0.156 1.085,0.149 1.24,0.681c0.685,2.355 1.033,4.805 1.033,7.279c0,2.483 -0.35,4.94 -1.04,7.303c-0.128,0.436 -0.527,0.719 -0.96,0.719z"/>
   <path id="svg_44" d="m9.006,39.022c-0.433,0 -0.832,-0.283 -0.959,-0.72c-0.69,-2.362 -1.04,-4.819 -1.04,-7.303c0,-2.475 0.348,-4.924 1.033,-7.279c0.155,-0.531 0.71,-0.837 1.24,-0.681c0.53,0.154 0.835,0.709 0.681,1.239c-0.633,2.175 -0.954,4.437 -0.954,6.722c0,2.294 0.323,4.562 0.96,6.742c0.155,0.53 -0.149,1.085 -0.68,1.24c-0.094,0.028 -0.188,0.04 -0.281,0.04z"/>
   <path id="svg_45" d="m4,43c-0.382,0 -0.747,-0.221 -0.914,-0.592c-1.345,-3.012 -2.086,-7.062 -2.086,-11.408s0.741,-8.396 2.087,-11.408c0.226,-0.504 0.818,-0.73 1.321,-0.505c0.504,0.226 0.73,0.817 0.505,1.321c-1.234,2.76 -1.913,6.522 -1.913,10.592s0.679,7.832 1.913,10.592c0.225,0.504 -0.001,1.096 -0.505,1.321c-0.133,0.06 -0.271,0.087 -0.408,0.087z"/>
   <path id="svg_46" d="m58,43c-0.136,0 -0.275,-0.027 -0.407,-0.087c-0.504,-0.226 -0.73,-0.817 -0.505,-1.321c1.233,-2.76 1.912,-6.522 1.912,-10.592s-0.679,-7.832 -1.913,-10.592c-0.225,-0.504 0.001,-1.096 0.505,-1.321c0.505,-0.226 1.095,0.001 1.321,0.505c1.346,3.012 2.087,7.062 2.087,11.408s-0.741,8.396 -2.087,11.408c-0.166,0.371 -0.531,0.592 -0.913,0.592z"/>
   <path id="svg_47" d="m30,19l-2,0c-0.552,0 -1,-0.447 -1,-1s0.448,-1 1,-1l2,0c0.552,0 1,0.447 1,1s-0.448,1 -1,1z"/>
   <path id="svg_48" d="m44,19l-2,0c-0.552,0 -1,-0.447 -1,-1s0.448,-1 1,-1l2,0c0.552,0 1,0.447 1,1s-0.448,1 -1,1z"/>
   <path id="svg_49" d="m38,19l-4,0c-0.552,0 -1,-0.447 -1,-1s0.448,-1 1,-1l4,0c0.552,0 1,0.447 1,1s-0.448,1 -1,1z"/>
   <path id="svg_50" d="m30,23l-2,0c-0.552,0 -1,-0.447 -1,-1s0.448,-1 1,-1l2,0c0.552,0 1,0.447 1,1s-0.448,1 -1,1z"/>
   <path id="svg_51" d="m44,23l-10,0c-0.552,0 -1,-0.447 -1,-1s0.448,-1 1,-1l10,0c0.552,0 1,0.447 1,1s-0.448,1 -1,1z"/>
   <path id="svg_52" d="m30,30l-2,0c-0.552,0 -1,-0.447 -1,-1s0.448,-1 1,-1l2,0c0.552,0 1,0.447 1,1s-0.448,1 -1,1z"/>
   <path id="svg_53" d="m44,30l-2,0c-0.552,0 -1,-0.447 -1,-1s0.448,-1 1,-1l2,0c0.552,0 1,0.447 1,1s-0.448,1 -1,1z"/>
   <path id="svg_54" d="m38,30l-4,0c-0.552,0 -1,-0.447 -1,-1s0.448,-1 1,-1l4,0c0.552,0 1,0.447 1,1s-0.448,1 -1,1z"/>
   <path id="svg_55" d="m30,34l-2,0c-0.552,0 -1,-0.447 -1,-1s0.448,-1 1,-1l2,0c0.552,0 1,0.447 1,1s-0.448,1 -1,1z"/>
   <path id="svg_56" d="m44,34l-10,0c-0.552,0 -1,-0.447 -1,-1s0.448,-1 1,-1l10,0c0.552,0 1,0.447 1,1s-0.448,1 -1,1z"/>
   <path id="svg_57" d="m30,41l-2,0c-0.552,0 -1,-0.447 -1,-1s0.448,-1 1,-1l2,0c0.552,0 1,0.447 1,1s-0.448,1 -1,1z"/>
   <path id="svg_58" d="m44,41l-2,0c-0.552,0 -1,-0.447 -1,-1s0.448,-1 1,-1l2,0c0.552,0 1,0.447 1,1s-0.448,1 -1,1z"/>
   <path id="svg_59" d="m38,41l-4,0c-0.552,0 -1,-0.447 -1,-1s0.448,-1 1,-1l4,0c0.552,0 1,0.447 1,1s-0.448,1 -1,1z"/>
   <path id="svg_60" d="m30,45l-2,0c-0.552,0 -1,-0.447 -1,-1s0.448,-1 1,-1l2,0c0.552,0 1,0.447 1,1s-0.448,1 -1,1z"/>
   <path id="svg_61" d="m44,45l-10,0c-0.552,0 -1,-0.447 -1,-1s0.448,-1 1,-1l10,0c0.552,0 1,0.447 1,1s-0.448,1 -1,1z"/>
   <path id="svg_62" d="m20,24c-0.256,0 -0.512,-0.098 -0.707,-0.293l-2,-2c-0.391,-0.391 -0.391,-1.023 0,-1.414c0.39,-0.391 1.024,-0.391 1.414,0l2,2c0.391,0.391 0.391,1.023 0,1.414c-0.195,0.195 -0.451,0.293 -0.707,0.293z"/>
   <path id="svg_63" d="m19.999,24c-0.219,0 -0.44,-0.071 -0.624,-0.219c-0.431,-0.346 -0.501,-0.975 -0.156,-1.406l4,-5c0.345,-0.43 0.974,-0.501 1.406,-0.156c0.431,0.346 0.501,0.975 0.156,1.406l-4,5c-0.198,0.246 -0.488,0.375 -0.782,0.375z"/>
   <path id="svg_64" d="m20,35c-0.256,0 -0.512,-0.098 -0.707,-0.293l-2,-2c-0.391,-0.391 -0.391,-1.023 0,-1.414c0.39,-0.391 1.024,-0.391 1.414,0l2,2c0.391,0.391 0.391,1.023 0,1.414c-0.195,0.195 -0.451,0.293 -0.707,0.293z"/>
   <path id="svg_65" d="m19.999,35c-0.219,0 -0.44,-0.071 -0.624,-0.219c-0.431,-0.346 -0.501,-0.975 -0.156,-1.406l4,-5c0.345,-0.43 0.974,-0.502 1.406,-0.156s0.501,0.975 0.156,1.406l-4,5c-0.198,0.246 -0.488,0.375 -0.782,0.375z"/>
   <path id="svg_66" d="m20,46c-0.256,0 -0.512,-0.098 -0.707,-0.293l-2,-2c-0.391,-0.391 -0.391,-1.023 0,-1.414c0.39,-0.391 1.024,-0.391 1.414,0l2,2c0.391,0.391 0.391,1.023 0,1.414c-0.195,0.195 -0.451,0.293 -0.707,0.293z"/>
   <path id="svg_67" d="m19.999,46c-0.219,0 -0.44,-0.071 -0.624,-0.219c-0.431,-0.346 -0.501,-0.975 -0.156,-1.406l4,-5c0.345,-0.43 0.974,-0.502 1.406,-0.156s0.501,0.975 0.156,1.406l-4,5c-0.198,0.246 -0.488,0.375 -0.782,0.375z"/>
  </g>
 </g>
</svg>