<svg width="46" height="65" xmlns="http://www.w3.org/2000/svg">

 <g>
  <title>background</title>
  <rect fill="none" id="canvas_background" height="67" width="48" y="-1" x="-1"/>
 </g>
 <g>
  <title>Layer 1</title>
  <path id="svg_1" d="m39.761,60l-33.583,0c-2.321,0 -4.208,-1.888 -4.208,-4.208l0,-40.792c0,-0.552 0.448,-1 1,-1l40,0c0.552,0 1,0.448 1,1l0,40.792c0,2.32 -1.888,4.208 -4.209,4.208zm-35.791,-44l0,39.792c0,1.217 0.991,2.208 2.208,2.208l33.583,0c1.218,0 2.208,-0.991 2.208,-2.208l0,-39.792l-37.999,0z"/>
  <path id="svg_2" d="m44.97,16l-44,0c-0.552,0 -1,-0.448 -1,-1l0,-3.375c0,-3.102 2.523,-5.625 5.625,-5.625l34.75,0c3.102,0 5.625,2.523 5.625,5.625l0,3.375c0,0.552 -0.448,1 -1,1zm-43,-2l42,0l0,-2.375c0,-1.999 -1.626,-3.625 -3.625,-3.625l-34.75,0c-1.999,0 -3.625,1.626 -3.625,3.625l0,2.375z"/>
  <path id="svg_3" d="m32.97,8l-20,0c-0.552,0 -1,-0.448 -1,-1l0,-3.042c0,-2.182 1.776,-3.958 3.958,-3.958l14.083,0c2.183,0 3.958,1.776 3.958,3.958l0,3.042c0.001,0.552 -0.447,1 -0.999,1zm-19,-2l18,0l0,-2.042c0,-1.08 -0.878,-1.958 -1.959,-1.958l-14.083,0c-1.08,0 -1.958,0.878 -1.958,1.958l0,2.042z"/>
  <path id="svg_4" d="m10.97,54c-2.206,0 -4,-1.794 -4,-4l0,-26c0,-2.206 1.794,-4 4,-4s4,1.794 4,4l0,26c0,2.206 -1.794,4 -4,4zm0,-32c-1.103,0 -2,0.897 -2,2l0,26c0,1.103 0.897,2 2,2s2,-0.897 2,-2l0,-26c0,-1.103 -0.897,-2 -2,-2z"/>
  <path id="svg_5" d="m34.97,54c-2.206,0 -4,-1.794 -4,-4l0,-26c0,-2.206 1.794,-4 4,-4s4,1.794 4,4l0,26c0,2.206 -1.794,4 -4,4zm0,-32c-1.103,0 -2,0.897 -2,2l0,26c0,1.103 0.897,2 2,2s2,-0.897 2,-2l0,-26c0,-1.103 -0.897,-2 -2,-2z"/>
  <path id="svg_6" d="m22.97,54c-2.206,0 -4,-1.794 -4,-4l0,-26c0,-2.206 1.794,-4 4,-4s4,1.794 4,4l0,26c0,2.206 -1.794,4 -4,4zm0,-32c-1.103,0 -2,0.897 -2,2l0,26c0,1.103 0.897,2 2,2s2,-0.897 2,-2l0,-26c0,-1.103 -0.897,-2 -2,-2z"/>
 </g>
</svg>