<svg width="64" height="65" xmlns="http://www.w3.org/2000/svg">

 <g>
  <title>background</title>
  <rect fill="none" id="canvas_background" height="67" width="66" y="-1" x="-1"/>
 </g>
 <g>
  <title>Layer 1</title>
  <g id="svg_1">
   <path id="svg_2" d="m53,23l-14,0c-0.552,0 -1,-0.447 -1,-1l0,-12c0,-0.553 0.448,-1 1,-1l9.292,0c3.147,0 5.708,2.561 5.708,5.708l0,7.292c0,0.553 -0.448,1 -1,1zm-13,-2l12,0l0,-6.292c0,-2.045 -1.664,-3.708 -3.708,-3.708l-8.292,0l0,10z"/>
   <path id="svg_3" d="m45,27l-3,0c-0.552,0 -1,-0.447 -1,-1s0.448,-1 1,-1l3,0c0.552,0 1,0.447 1,1s-0.448,1 -1,1z"/>
   <path id="svg_4" d="m48,43c-3.86,0 -7,-3.141 -7,-7s3.14,-7 7,-7s7,3.141 7,7s-3.14,7 -7,7zm0,-12c-2.757,0 -5,2.243 -5,5s2.243,5 5,5s5,-2.243 5,-5s-2.243,-5 -5,-5z"/>
   <path id="svg_5" d="m49.021,39l-2.042,0c-1.091,0 -1.979,-0.888 -1.979,-1.979l0,-2.043c0,-1.09 0.888,-1.978 1.979,-1.978l2.042,0c1.091,0 1.979,0.888 1.979,1.979l0,2.043c0,1.09 -0.888,1.978 -1.979,1.978zm-0.021,-4l-2,0l0,2l2,0l0,-2zm0.021,2l0,0l0,0z"/>
   <path id="svg_6" d="m12,43c-3.86,0 -7,-3.141 -7,-7s3.14,-7 7,-7s7,3.141 7,7s-3.14,7 -7,7zm0,-12c-2.757,0 -5,2.243 -5,5s2.243,5 5,5s5,-2.243 5,-5s-2.243,-5 -5,-5z"/>
   <path id="svg_7" d="m13.021,39l-2.042,0c-1.091,0 -1.979,-0.888 -1.979,-1.979l0,-2.043c0,-1.09 0.888,-1.978 1.979,-1.978l2.042,0c1.091,0 1.979,0.888 1.979,1.979l0,2.043c0,1.09 -0.888,1.978 -1.979,1.978zm-0.021,-4l-2,0l0,2l2,0l0,-2zm0.021,2l0,0l0,0z"/>
   <path id="svg_8" d="m53,19l-10,0c-0.552,0 -1,-0.447 -1,-1l0,-4c0,-0.553 0.448,-1 1,-1l9.929,0c0.495,0 0.915,0.361 0.989,0.851c0.044,0.291 0.082,0.569 0.082,0.857l0,3.292c0,0.553 -0.448,1 -1,1zm-9,-2l8,0l0,-2l-8,0l0,2z"/>
   <path id="svg_9" d="m59,35l-5.349,0c-0.552,0 -1,-0.447 -1,-1s0.448,-1 1,-1l4.349,0l0,-6c0,-2.206 -1.794,-4 -4,-4l-16,0l0,10l4.349,0c0.552,0 1,0.447 1,1s-0.448,1 -1,1l-5.349,0c-0.552,0 -1,-0.447 -1,-1l0,-12c0,-0.553 0.448,-1 1,-1l17,0c3.308,0 6,2.691 6,6l0,7c0,0.553 -0.448,1 -1,1z"/>
   <g id="svg_10">
    <path id="svg_11" d="m6.349,35l-5.349,0c-0.552,0 -1,-0.447 -1,-1l0,-4c0,-0.553 0.448,-1 1,-1l11,0c0.552,0 1,0.447 1,1s-0.448,1 -1,1c-2.11,0 -4.003,1.34 -4.709,3.334c-0.141,0.399 -0.519,0.666 -0.942,0.666zm-4.349,-2l3.681,0c0.359,-0.756 0.846,-1.431 1.428,-2l-5.109,0l0,2z"/>
    <path id="svg_12" d="m37,35l-19.349,0c-0.424,0 -0.801,-0.267 -0.943,-0.666c-0.705,-1.994 -2.598,-3.334 -4.708,-3.334c-0.552,0 -1,-0.447 -1,-1s0.448,-1 1,-1l25,0c0.552,0 1,0.447 1,1l0,4c0,0.553 -0.448,1 -1,1zm-18.681,-2l17.681,0l0,-2l-19.109,0c0.582,0.569 1.069,1.244 1.428,2z"/>
   </g>
   <path id="svg_13" d="m59,31l-4,0c-0.552,0 -1,-0.447 -1,-1l0,-4c0,-0.553 0.448,-1 1,-1l3.899,0c0.476,0 0.886,0.335 0.98,0.802c0.08,0.394 0.121,0.798 0.121,1.198l0,3c0,0.553 -0.448,1 -1,1zm-3,-2l2,0l0,-2l-2,0l0,2z"/>
   <path id="svg_14" d="m5,43l-4,0c-0.552,0 -1,-0.447 -1,-1s0.448,-1 1,-1l4,0c0.552,0 1,0.447 1,1s-0.448,1 -1,1z"/>
   <path id="svg_15" d="m59,43l-23,0c-0.552,0 -1,-0.447 -1,-1s0.448,-1 1,-1l23,0c0.552,0 1,0.447 1,1s-0.448,1 -1,1z"/>
   <path id="svg_16" d="m32,43l-4,0c-0.552,0 -1,-0.447 -1,-1s0.448,-1 1,-1l4,0c0.552,0 1,0.447 1,1s-0.448,1 -1,1z"/>
   <path id="svg_17" d="m24,43l-12,0c-0.552,0 -1,-0.447 -1,-1s0.448,-1 1,-1l12,0c0.552,0 1,0.447 1,1s-0.448,1 -1,1z"/>
   <path id="svg_18" d="m37,31l-36,0c-0.552,0 -1,-0.447 -1,-1l0,-8c0,-0.553 0.448,-1 1,-1l36,0c0.552,0 1,0.447 1,1l0,8c0,0.553 -0.448,1 -1,1zm-35,-2l34,0l0,-6l-34,0l0,6z"/>
   <path id="svg_19" d="m16,23l-12,0c-0.552,0 -1,-0.447 -1,-1l0,-8c0,-0.553 0.448,-1 1,-1l12,0c0.552,0 1,0.447 1,1l0,8c0,0.553 -0.448,1 -1,1zm-11,-2l10,0l0,-6l-10,0l0,6z"/>
   <path id="svg_20" d="m31,23l-15,0c-0.552,0 -1,-0.447 -1,-1l0,-12c0,-0.553 0.448,-1 1,-1l15,0c0.552,0 1,0.447 1,1l0,12c0,0.553 -0.448,1 -1,1zm-14,-2l13,0l0,-10l-13,0l0,10z"/>
   <path id="svg_21" d="m16,15l-7,0c-0.552,0 -1,-0.447 -1,-1l0,-10c0,-0.553 0.448,-1 1,-1l12,0c0.552,0 1,0.447 1,1l0,6c0,0.553 -0.448,1 -1,1l-4,0l0,3c0,0.553 -0.448,1 -1,1zm-6,-2l5,0l0,-3c0,-0.553 0.448,-1 1,-1l4,0l0,-4l-10,0l0,8z"/>
   <path id="svg_22" d="m23,19c-0.256,0 -0.512,-0.098 -0.707,-0.293l-2,-2c-0.391,-0.391 -0.391,-1.023 0,-1.414c0.39,-0.391 1.024,-0.391 1.414,0l2,2c0.391,0.391 0.391,1.023 0,1.414c-0.195,0.195 -0.451,0.293 -0.707,0.293z"/>
   <path id="svg_23" d="m22.999,19c-0.209,0 -0.419,-0.065 -0.599,-0.2c-0.442,-0.331 -0.531,-0.958 -0.2,-1.399l3,-4c0.332,-0.442 0.958,-0.531 1.4,-0.2s0.531,0.958 0.2,1.399l-3,4c-0.196,0.262 -0.497,0.4 -0.801,0.4z"/>
   <path id="svg_24" d="m39,23l-4,0c-0.552,0 -1,-0.447 -1,-1l0,-15c0,-1.654 1.346,-3 3,-3s3,1.346 3,3l0,15c0,0.553 -0.448,1 -1,1zm-3,-2l2,0l0,-14c0,-0.552 -0.448,-1 -1,-1s-1,0.448 -1,1l0,14z"/>
   <path id="svg_25" d="m37,6c-0.552,0 -1,-0.447 -1,-1c0,-1.654 -1.346,-3 -3,-3c-0.552,0 -1,-0.447 -1,-1s0.448,-1 1,-1c2.757,0 5,2.243 5,5c0,0.553 -0.448,1 -1,1z"/>
   <path id="svg_26" d="m37,31l-36,0c-0.552,0 -1,-0.447 -1,-1l0,-4c0,-0.553 0.448,-1 1,-1l36,0c0.552,0 1,0.447 1,1l0,4c0,0.553 -0.448,1 -1,1zm-35,-2l34,0l0,-2l-34,0l0,2z"/>
  </g>
 </g>
</svg>